<svg width="140" height="104" viewBox="0 0 140 104" fill="none" xmlns="http://www.w3.org/2000/svg">
<path d="M4.66602 33.334H135.333M18.666 70.6673H74.666M93.3327 70.6673H121.333M4.66602 14.6673V89.334C4.66602 91.8093 5.64935 94.1833 7.39969 95.9336C9.15003 97.684 11.524 98.6673 13.9993 98.6673H125.999C128.475 98.6673 130.849 97.684 132.599 95.9336C134.349 94.1833 135.333 91.8093 135.333 89.334V14.6673C135.333 12.192 134.349 9.81799 132.599 8.06765C130.849 6.31731 128.475 5.33398 125.999 5.33398H13.9993C11.524 5.33398 9.15003 6.31731 7.39969 8.06765C5.64935 9.81799 4.66602 12.192 4.66602 14.6673Z" stroke="#1A6EC1" stroke-width="9.46667"/>
</svg>
