<svg width="36" height="36" viewBox="0 0 36 36" fill="none" xmlns="http://www.w3.org/2000/svg">
<path d="M8.9991 25.9499L2.6241 19.5749C2.3241 19.2749 2.1801 18.9249 2.1921 18.5249C2.2041 18.1249 2.3606 17.7749 2.6616 17.4749C2.9616 17.1999 3.3116 17.0559 3.7116 17.0429C4.1116 17.0299 4.4616 17.1739 4.7616 17.4749L10.0866 22.7999L12.1866 24.8999L11.0991 25.9499C10.7991 26.2249 10.4491 26.3689 10.0491 26.3819C9.6491 26.3949 9.2991 26.2509 8.9991 25.9499ZM17.4741 25.9499L11.0991 19.5749C10.8241 19.2999 10.6866 18.9564 10.6866 18.5444C10.6866 18.1324 10.8241 17.7759 11.0991 17.4749C11.3991 17.1749 11.7556 17.0249 12.1686 17.0249C12.5816 17.0249 12.9376 17.1749 13.2366 17.4749L18.5241 22.7624L31.2741 10.0124C31.5741 9.71236 31.9241 9.56886 32.3241 9.58186C32.7241 9.59486 33.0741 9.75086 33.3741 10.0499C33.6491 10.3499 33.7931 10.6999 33.8061 11.0999C33.8191 11.4999 33.6751 11.8499 33.3741 12.1499L19.5741 25.9499C19.2741 26.2499 18.9241 26.3999 18.5241 26.3999C18.1241 26.3999 17.7741 26.2499 17.4741 25.9499ZM18.5241 18.5249L16.3866 16.4249L22.7616 10.0499C23.0366 9.77486 23.3806 9.63736 23.7936 9.63736C24.2066 9.63736 24.5626 9.77486 24.8616 10.0499C25.1616 10.3499 25.3116 10.7064 25.3116 11.1194C25.3116 11.5324 25.1616 11.8884 24.8616 12.1874L18.5241 18.5249Z" fill="#00890E"/>
</svg>
