<svg width="108" height="96" viewBox="0 0 108 96" fill="none" xmlns="http://www.w3.org/2000/svg">
<path d="M100.125 18.4688H12.625C11.1746 18.4688 9.7836 17.8926 8.75801 16.867C7.73242 15.8414 7.15625 14.4504 7.15625 13C7.15625 11.5496 7.73242 10.1586 8.75801 9.13301C9.7836 8.10742 11.1746 7.53125 12.625 7.53125H87C87.8702 7.53125 88.7048 7.18555 89.3202 6.57019C89.9355 5.95484 90.2812 5.12024 90.2812 4.25C90.2812 3.37976 89.9355 2.54516 89.3202 1.92981C88.7048 1.31445 87.8702 0.96875 87 0.96875H12.625C9.43411 0.96875 6.37392 2.23632 4.11762 4.49262C1.86132 6.74892 0.59375 9.80911 0.59375 13V83C0.59375 86.1909 1.86132 89.2511 4.11762 91.5074C6.37392 93.7637 9.43411 95.0312 12.625 95.0312H100.125C102.156 95.0312 104.103 94.2246 105.539 92.7888C106.975 91.353 107.781 89.4056 107.781 87.375V26.125C107.781 24.0944 106.975 22.147 105.539 20.7112C104.103 19.2754 102.156 18.4688 100.125 18.4688ZM101.219 87.375C101.219 87.6651 101.104 87.9433 100.898 88.1484C100.693 88.3535 100.415 88.4688 100.125 88.4688H12.625C11.1746 88.4688 9.7836 87.8926 8.75801 86.867C7.73242 85.8414 7.15625 84.4504 7.15625 83V23.7133C8.84823 24.5817 10.7232 25.0336 12.625 25.0312H100.125C100.415 25.0312 100.693 25.1465 100.898 25.3516C101.104 25.5567 101.219 25.8349 101.219 26.125V87.375ZM85.9062 54.5625C85.9062 55.6441 85.5855 56.7014 84.9846 57.6008C84.3837 58.5001 83.5296 59.2011 82.5303 59.615C81.531 60.0289 80.4314 60.1372 79.3706 59.9262C78.3098 59.7152 77.3353 59.1943 76.5705 58.4295C75.8057 57.6647 75.2848 56.6902 75.0738 55.6294C74.8628 54.5686 74.9711 53.469 75.385 52.4697C75.799 51.4704 76.4999 50.6163 77.3992 50.0154C78.2986 49.4145 79.3559 49.0938 80.4375 49.0938C81.8879 49.0938 83.2789 49.6699 84.3045 50.6955C85.3301 51.7211 85.9062 53.1121 85.9062 54.5625Z" fill="#1A6EC1"/>
</svg>
